<svg width="237" height="237" viewBox="0 -38 237 237" fill="none" xmlns="http://www.w3.org/2000/svg">
<path d="M232.779 71.3823C234.28 70.3925 235.358 69.1697 236.014 67.7089C236.671 66.2498 236.999 64.4371 236.999 62.2691C236.999 59.4186 236.126 57.0523 234.387 55.1685C229.23 70.3462 216.664 86.4938 198.712 101.262H213.149C222.107 101.262 228.228 99.2375 231.511 95.1873C233.809 92.4096 234.959 88.642 234.959 83.8846C234.959 81.2011 234.22 79.1058 232.742 77.5988C231.264 76.0917 229.26 74.9846 226.727 74.279L226.798 73.5734C229.049 73.2446 231.042 72.5142 232.779 71.3839V71.3823Z" fill="white"/>
<path d="M37.9884 50.8276H10.7351L1.12021 101.263C5.15742 84.8629 18.3339 67.0182 37.9868 50.8259L37.9884 50.8276Z" fill="white"/>
<path d="M122.531 96.6712H95.7964L92.6298 101.263H61.5319L70.1593 89.184H31.5597L29.2375 101.263H1.12013C-0.453278 109.514 -0.631027 117.398 2.30348 124.523C15.6018 156.827 78.3621 161.29 142.484 134.491C164.292 125.376 183.448 113.819 198.712 101.263H124.008L122.53 96.6712H122.531Z" fill="white"/>
<path d="M113.596 70.394L104.801 83.3211H118.239L114.088 70.394H113.596Z" fill="white"/>
<path d="M78.066 68.6276H35.4999L34.3742 74.4194H74.618L72.327 86.1468L97.5542 50.8259H136.462L152.186 97.7916L161.226 50.8259H220.326C226.095 50.8259 230.317 51.8504 232.991 53.8994C233.508 54.2944 233.972 54.719 234.388 55.1702C237.736 45.315 237.961 35.8696 234.507 27.4769C221.209 -4.82669 158.448 -9.28993 94.3267 17.5094C72.4652 26.6457 53.2699 38.2376 37.9884 50.8275H81.4432L78.066 68.6293V68.6276Z" fill="white"/>
<path d="M203.019 64.3198H186.766L185.501 70.8188H201.753C203.442 70.8188 204.684 70.3247 205.483 69.3349C206.139 68.5351 206.468 67.7337 206.468 66.9339C206.468 65.1923 205.318 64.3198 203.02 64.3198H203.019Z" fill="white"/>
<path d="M200.555 81.4836H183.458L182.122 88.4057H199.148C201.022 88.4057 202.36 87.8885 203.159 86.8524C203.44 86.4757 203.674 86.0526 203.861 85.5801C204.049 85.1108 204.143 84.6861 204.143 84.3093C204.143 82.4255 202.946 81.4836 200.555 81.4836Z" fill="white"/>
</svg>
