<svg width="237" height="237" viewBox="0 -38 237 237" fill="none" xmlns="http://www.w3.org/2000/svg">
<path d="M142.434 133.602C206.074 107.046 246.874 59.6588 233.562 27.7592C220.251 -4.14031 157.87 -8.47218 94.2302 18.0837C30.5903 44.6397 -10.2092 92.0272 3.10201 123.927C16.4132 155.826 78.7944 160.158 142.434 133.602Z" fill="#6D6E71"/>
<path d="M231.888 71.2796C233.378 70.3016 234.449 69.0914 235.102 67.6474C235.754 66.205 236.08 64.4109 236.08 62.2686C236.08 58.7754 234.752 56.0165 232.097 53.9903C229.443 51.964 225.252 50.9517 219.523 50.9517H160.845L151.869 97.3951L136.257 50.9517H97.6277L72.5801 85.8803L74.8549 74.2821H34.8992L36.0161 68.5534H78.2778L81.6303 50.9501H11.4314L1.86108 100.829H29.8033L32.1092 88.8845H70.4328L61.8667 100.829H92.7428L95.886 96.2895H122.43L123.897 100.829H212.401C221.296 100.829 227.373 98.8277 230.632 94.8226C232.913 92.0751 234.055 88.3497 234.055 83.6464C234.055 80.9921 233.321 78.9201 231.855 77.4303C230.388 75.9404 228.398 74.8447 225.883 74.1464L225.953 73.4481C228.189 73.1226 230.168 72.3998 231.891 71.2828L231.888 71.2796ZM104.825 83.0854L113.556 70.3016H114.045L118.167 83.0854H104.825ZM203.179 85.321C202.992 85.7871 202.76 86.2057 202.48 86.5786C201.689 87.604 200.361 88.1159 198.498 88.1159H181.593L182.921 81.2701H199.895C202.27 81.2701 203.457 82.2023 203.457 84.065C203.457 84.4379 203.364 84.8565 203.177 85.3226L203.179 85.321ZM204.786 69.255C203.993 70.2329 202.76 70.7219 201.084 70.7219H184.948L186.205 64.2948H202.341C204.623 64.2948 205.764 65.1567 205.764 66.8787C205.764 67.6703 205.437 68.4618 204.786 69.2533V69.255Z" fill="white"/>
</svg>
